# xmcd
#
# Track frame offsets: 
#        150
#        12928
#        24013
#        34591
#
# Disc length: 656 seconds
#
# Revision: 0
# Processed by: cddbd v1.5.2PL0 Copyright (c) Steve Scherf et al.
# Submitted via: ExactAudioCopy v0.99pb3
#
DISCID=1c028e04
DTITLE=Flashcats, The - Flashcats Christmas Record #27
DYEAR=2007
DGENRE=Christmas/Holiday
TTITLE0=Santa Hitched A Ride (In An Old Chevrolet)
TTITLE1=Countdown To Christmas
TTITLE2=Santa Loves Everyone
TTITLE3=The Christmas Dance
EXTD=
EXTT0=
EXTT1=
EXTT2=
EXTT3=
PLAYORDER=
